<mxfile host="app.diagrams.net" agent="Mozilla/5.0 (Windows NT 10.0; Win64; x64) AppleWebKit/537.36 (KHTML, like Gecko) Chrome/139.0.0.0 Safari/537.36 Edg/139.0.0.0" version="28.1.2">
  <diagram name="第 1 页" id="bOk7yKkw_87bxE1mbRi1">
    <mxGraphModel dx="380" dy="209" grid="1" gridSize="10" guides="1" tooltips="1" connect="1" arrows="1" fold="1" page="1" pageScale="1" pageWidth="827" pageHeight="1169" math="0" shadow="0">
      <root>
        <mxCell id="0" />
        <mxCell id="1" parent="0" />
        <mxCell id="fAFTGeUQixBZJxajyv78-22" value="" style="verticalLabelPosition=bottom;shadow=0;dashed=0;align=center;html=1;verticalAlign=top;shape=stencil(zVbdboMgGH0abhsF7Xq72W1X2y76BMzSSapggK3b249CTSoqQ6vJEmPC+fQcvnM+fwDKZIFrAmBUALQFEK4jfdJLhitikdeXt53FpBL8SE50ry4XU1YQQZWtniyWGAL0CKJ7DZ4PlOWcMZIryplsVa7qmhtTplrKW0tca42KKCIsetngt13FdvXTqgH4NEZnN1onnqTzHKATtftZpZOUHkKUVmuYhqmhTCNDIaLsHefHD8E/2b53jxJ/EU8LNT6PU6fQlCtu7u61B3nzbhhKyq4Y4rsRFKbxzgYNOtA0yg5cEJ8b5iGayw+nm9g7LkGGJH9MXJ8hy/TmTGc8IWyHIp0Q9jK9Jc5zPr41h2FK8q7B/zV5/0gG2TMDRfNlXMQeQaTS7w3vFbnylOcNACVt9+B499Dm5gDcXWxCKPKSS58PvpgOtCwHjTS3dl7uBrX/UAb4BQ==);pointerEvents=1;strokeWidth=2;fillColor=#000000;rounded=0;sketch=0;fillStyle=auto;fontFamily=Helvetica;fontSize=12;fontColor=default;" vertex="1" parent="1">
          <mxGeometry x="50" y="270" width="30" height="40" as="geometry" />
        </mxCell>
        <mxCell id="fAFTGeUQixBZJxajyv78-30" style="edgeStyle=orthogonalEdgeStyle;shape=connector;rounded=0;orthogonalLoop=1;jettySize=auto;html=1;exitX=1;exitY=1;exitDx=0;exitDy=0;exitPerimeter=0;strokeColor=default;strokeWidth=2;align=center;verticalAlign=middle;fontFamily=Helvetica;fontSize=12;fontColor=default;labelBackgroundColor=default;endArrow=none;endFill=0;" edge="1" parent="1" source="fAFTGeUQixBZJxajyv78-24">
          <mxGeometry relative="1" as="geometry">
            <mxPoint x="120" y="330" as="targetPoint" />
            <Array as="points">
              <mxPoint x="160" y="330" />
            </Array>
          </mxGeometry>
        </mxCell>
        <mxCell id="fAFTGeUQixBZJxajyv78-24" value="" style="verticalLabelPosition=bottom;shadow=0;dashed=0;align=center;html=1;verticalAlign=top;shape=stencil(zVbRboMgFP0aXhsF7fq62W1P2x76BczSSapggK3b349CTSoqQ6vJEmPCuXAO99wLClAmC1wTAKMCoC2AcB3plx4yXBGLvL687SwmleBHcqJ7dZlMWUEEVTZ6slhiCNAjiO41eH5QlnPGSK4oZ7IVuYprbkyZailvLXGtNSqiiLDoZYPfdhTb0U8rBuDTGJ3daJ14ks5zgE7UzmeVTlJ6CFFarWEapoYyjQwVEWXvOD9+CP7J9r17lPiLeFKo8bmdOoEmXHGzutce5K13w1BSdsUQ342gMIl3NmjQgaRRduCC+Nwwh2guP5xsYm+7BBmS/NFxfYYsk5vTnfGEYjsU6YRiL5Nb4pzz8ak5DFMq7xr8Xyvvb8kge2agaL6Mi9gjiFT63vDOyJUnPG8BEGx3BpzQXJub+9PdxSaEIi+59PngK9OBluWgkWZp53I3qP2HMsAv);pointerEvents=1;strokeWidth=2;fillColor=#000000;rounded=0;sketch=0;fillStyle=auto;flipH=1;fontFamily=Helvetica;fontSize=12;fontColor=default;" vertex="1" parent="1">
          <mxGeometry x="160" y="270" width="30" height="40" as="geometry" />
        </mxCell>
        <mxCell id="fAFTGeUQixBZJxajyv78-25" value="" style="verticalLabelPosition=bottom;shadow=0;dashed=0;align=center;html=1;verticalAlign=top;shape=stencil(zVbdboMgGH0abhsF7Xq72W1X2y76BMzSSapggK3b249CTSoqQ6vJEmPC+fQcvnM+fwDKZIFrAmBUALQFEK4jfdJLhitikdeXt53FpBL8SE50ry4XU1YQQZWtniyWGAL0CKJ7DZ4PlOWcMZIryplsVa7qmhtTplrKW0tca42KKCIsetngt13FdvXTqgH4NEZnN1onnqTzHKATtftZpZOUHkKUVmuYhqmhTCNDIaLsHefHD8E/2b53jxJ/EU8LNT6PU6fQlCtu7u61B3nzbhhKyq4Y4rsRFKbxzgYNOtA0yg5cEJ8b5iGayw+nm9g7LkGGJH9MXJ8hy/TmTGc8IWyHIp0Q9jK9Jc5zPr41h2FK8q7B/zV5/0gG2TMDRfNlXMQeQaTS7w3vFbnylOcNACVt9+B499Dm5gDcXWxCKPKSS58PvpgOtCwHjTS3dl7uBrX/UAb4BQ==);pointerEvents=1;strokeWidth=2;fillColor=#000000;rounded=0;sketch=0;fillStyle=auto;flipH=1;fontFamily=Helvetica;fontSize=12;fontColor=default;" vertex="1" parent="1">
          <mxGeometry x="120" y="350" width="30" height="40" as="geometry" />
        </mxCell>
        <mxCell id="fAFTGeUQixBZJxajyv78-28" style="edgeStyle=orthogonalEdgeStyle;rounded=0;orthogonalLoop=1;jettySize=auto;html=1;exitX=1;exitY=1;exitDx=0;exitDy=0;exitPerimeter=0;entryX=1;entryY=0;entryDx=0;entryDy=0;entryPerimeter=0;fontFamily=Helvetica;fontSize=12;fontColor=default;endArrow=none;endFill=0;strokeWidth=2;" edge="1" parent="1" source="fAFTGeUQixBZJxajyv78-22" target="fAFTGeUQixBZJxajyv78-25">
          <mxGeometry relative="1" as="geometry" />
        </mxCell>
      </root>
    </mxGraphModel>
  </diagram>
</mxfile>
